# xmcd CD database file
#
# Track frame offsets:
#	150
#	13935
#	32557
#	53287
#	69757
#	84325
#	96837
#	112990
#	125987
#	144225
#	167475
#	183870
#	205870
#	222045
#
# Disc length: 3165 seconds
#
# Revision: 0
# Processed by: cddbd v1.5.2PL0 Copyright (c) Steve Scherf et al.
# Submitted via: CDex 1.51
#
DISCID=ae0c5b0e
DTITLE=Marková Denisa - Fanny
DYEAR=1996
DGENRE=Country
TTITLE0=Toulavy sny
TTITLE1=V naruci
TTITLE2=Tajemny hrad
TTITLE3=Pri hvezdach
TTITLE4=Smolnej den
TTITLE5=Pisen podzimni
TTITLE6=Par vzpominek
TTITLE7=Zamilovana
TTITLE8=Vitr v zadech
TTITLE9=Pane muj
TTITLE10=Odesla laska
TTITLE11=Hotel
TTITLE12=Par tonu
TTITLE13=Fanny
EXTD=YEAR: 1996
EXTT0=
EXTT1=
EXTT2=
EXTT3=
EXTT4=
EXTT5=
EXTT6=
EXTT7=
EXTT8=
EXTT9=
EXTT10=
EXTT11=
EXTT12=
EXTT13=
PLAYORDER=
